<svg width="24" height="19" fill="none" xmlns="http://www.w3.org/2000/svg"><path d="M24 2.25a10.47 10.47 0 01-2.835.756A4.792 4.792 0 0023.33.356a9.991 9.991 0 01-3.12 1.161A4.992 4.992 0 0016.614 0C13.893 0 11.7 2.154 11.7 4.795c0 .38.033.746.114 1.094A14.05 14.05 0 011.67.874a4.733 4.733 0 00-.673 2.423c0 1.66.877 3.132 2.185 3.984a4.957 4.957 0 01-2.223-.59v.053c0 2.33 1.706 4.264 3.942 4.71-.4.107-.837.158-1.29.158-.315 0-.633-.018-.932-.082.638 1.899 2.447 3.294 4.598 3.34a10.053 10.053 0 01-6.1 2.044c-.404 0-.791-.017-1.178-.065C2.18 18.219 4.763 19 7.548 19c9.054 0 14.004-7.308 14.004-13.642 0-.212-.008-.417-.018-.62A9.68 9.68 0 0024 2.25z" fill="#2E2520"/></svg>